<?xml version="1.0" encoding="iso-8859-1"?>
<!-- Generator: Adobe Illustrator 19.0.0, SVG Export Plug-In . SVG Version: 6.00 Build 0)  -->
<svg version="1.1" id="Capa_1" xmlns="http://www.w3.org/2000/svg" xmlns:xlink="http://www.w3.org/1999/xlink" x="0px" y="0px"
	 viewBox="0 0 480 480" style="enable-background:new 0 0 480 480;" xml:space="preserve">
<g>
	<g>
		<path d="M456,64H24C10.745,64,0,74.745,0,88v256c0,13.255,10.745,24,24,24h137.056l-21.336,32H96c-4.418,0-8,3.582-8,8
			s3.582,8,8,8h288c4.418,0,8-3.582,8-8s-3.582-8-8-8h-43.72l-21.336-32H456c13.255,0,24-10.745,24-24V88
			C480,74.745,469.255,64,456,64z M321.048,400H158.952l21.328-32h119.44L321.048,400z M464,344c0,4.418-3.582,8-8,8H24
			c-4.418,0-8-3.582-8-8V88c0-4.418,3.582-8,8-8h432c4.418,0,8,3.582,8,8V344z"/>
	</g>
</g>
<g>
	<g>
		<path d="M24,88v256h432V88H24z M440,328H40V104h400V328z"/>
	</g>
</g>
<g>
</g>
<g>
</g>
<g>
</g>
<g>
</g>
<g>
</g>
<g>
</g>
<g>
</g>
<g>
</g>
<g>
</g>
<g>
</g>
<g>
</g>
<g>
</g>
<g>
</g>
<g>
</g>
<g>
</g>
</svg>
