<?xml version="1.0" encoding="utf-8"?>
<!-- Generator: Adobe Illustrator 19.0.0, SVG Export Plug-In . SVG Version: 6.00 Build 0)  -->
<svg version="1.1" id="layer" xmlns="http://www.w3.org/2000/svg" xmlns:xlink="http://www.w3.org/1999/xlink" x="0px" y="0px"
	 viewBox="-153 -46 652 652" style="enable-background:new -153 -46 652 652;" xml:space="preserve">
<g>
	<path d="M-13.5,203.7c-10.5,0-21.8,8.1-30.8,27.1L-55.9,203h-0.7c-1.9,4.4-7.9,6.8-13.5,6.8h-61.1v1.2c4.9,2.1,9.2,9.2,13.2,18.8
		l38,91.7h1.2l24.7-59.7l24.7,59.7h1.2l21.1-52.4c8.2-20.6,13.5-31.9,13.5-42.2C6.2,213.3-1.4,203.7-13.5,203.7z M-70.5,289.7
		l-24.6-59.8c-4-9.8-0.3-16.7,9.8-16.7c8.9,0,13.3,5.9,17.8,16.6l10.9,26.3L-70.5,289.7z M-11.5,267.3l-8.6,21.8l-22.8-54.7
		c5.6-8.1,12.8-11.1,21.2-11.1c9.9,0,15.9,6.8,15.9,19.1C-5.8,249.1-7.6,257.6-11.5,267.3L-11.5,267.3z"/>
	<path d="M307.6,263c0-12.1-12.5-21-28.3-21c-24,0-40.3,20.7-40.3,42.5c0,23.7,18.1,37.9,36,37.9c14.4,0,28.3-8.7,32.6-24l-1-0.9
		c-4.9,7.2-13.3,11.2-21.8,11.2c-11.1,0-20.2-6.4-24.5-17.8C283.3,287.3,307.6,281.1,307.6,263L307.6,263z M259.3,287.4
		c-0.9-3.6-1.3-7.4-1.3-11.4c0-19.2,8.2-30,18.2-30c7.9,0,10.2,6.7,10.2,13.8C286.4,274.6,273,284.5,259.3,287.4z"/>
	<path d="M453.9,239.8c-10.2,0-20,9.6-26,22.6l-10.1-21.3h-1.2c-1.9,7.2-11,11.4-20.9,11.2v1.2c6.2,1.5,8.9,7.4,12.7,15.2l26.2,54
		l-1.8,3.3c-5.6,11.1-9.5,15.1-13.5,15.1c-7.3,0-7.9-10.5-16.6-10.5c-5.2,0-9.5,3.6-9.5,9.8c0,7,7.7,11.4,15.7,11.4
		c11.7,0,19-9.2,26.8-24l20.3-37.9c8.2-15.2,12.6-21.9,12.6-33.3C468.8,247.5,463.4,239.8,453.9,239.8L453.9,239.8z M452.6,288
		l-6.5,12.6l-16.7-35.2c3.2-5.7,8.8-10.3,17.2-10.3c7.9,0,12,4.9,12,12.9C458.5,273.5,456.6,280.3,452.6,288L452.6,288z"/>
	<path d="M88.9,304.7V259c0-10.2-6.4-17-15.9-17c-11.4,0-25.8,10.4-33.5,17.9v-61.7h-1c-4.6,7.2-16.5,11.7-27.9,11.4v1.2
		c6.5,1.8,8.4,6.4,8.4,15.2v78.7c0,6.7-3,12-8.3,14.2v1.2h37.4v-1.2c-5.5-3.1-8.6-7.5-8.6-13.9v-41.3c8.7-6.4,15.4-9.5,20.3-9.5
		c5.5,0,8.6,4,8.6,12.1V305c0,6.4-2.8,10.6-8.6,13.9v1.2h37.4v-1.2C91.9,316.7,88.9,311.4,88.9,304.7L88.9,304.7z"/>
	<path d="M366.4,242c-10.7,0-20.9,7.8-26.5,13.9v-57.7H339c-5.3,7.2-17.6,11.7-28.6,11.4v1.2c6.1,1.8,8.9,6.5,8.9,15.2v95.6h1.3
		l9.8-10.9c4.3,6.8,12.5,10.9,22.2,10.9c24.6,0,41.5-21,41.5-43.9C394.2,256.7,381,242,366.4,242L366.4,242z M352.1,317.6
		c-7.3,0-12.2-5.9-12.2-14.1v-43.5c4.9-4.3,10.4-8.3,16.5-8.1c10.4,0.1,16.3,11.8,16.5,29.7C373,301.9,364.7,317.6,352.1,317.6
		L352.1,317.6z"/>
	<path d="M227.4,242c-8.2,0-17,8.7-21.2,17v-17.9H205c-5,7.2-16.9,11.5-28,11.4v1.2c6.1,1.8,9,6.7,9,15.2v35.2
		c0,6.8-3,12.1-8.9,14.8v1.2h38.2v-1.2c-6.1-2.7-8.7-8-8.7-14.8v-41.4c2.2-2.8,4.7-5.8,7.7-5.8c5.5,0,7.7,6.7,14.5,6.7
		c4.7,0,9.6-3.8,9.6-10.4C238.5,246.8,233.3,242,227.4,242L227.4,242z"/>
	<path d="M170.1,263c0-12.1-12.5-21-28.3-21c-24,0-40.3,20.7-40.3,42.5c0,23.7,18.1,37.9,36,37.9c14.4,0,28.3-8.7,32.6-24l-1-0.9
		c-4.9,7.2-13.3,11.2-21.8,11.2c-11.1,0-20.2-6.4-24.5-17.8C145.8,287.3,170.1,281.1,170.1,263L170.1,263z M121.8,287.4
		c-0.9-3.6-1.3-7.4-1.3-11.4c0-19.2,8.2-30,18.2-30c7.9,0,10.4,6.7,10.4,13.8C149.1,274.6,135.6,284.5,121.8,287.4z"/>
</g>
</svg>
